<svg id="visual" viewBox="0 0 900 100" width="900" height="100" xmlns="http://www.w3.org/2000/svg" xmlns:xlink="http://www.w3.org/1999/xlink" version="1.1"><rect x="0" y="0" width="900" height="100" fill="#3f48cc"></rect><path d="M0 35L37.5 35.7C75 36.3 150 37.7 225 47.3C300 57 375 75 450 69C525 63 600 33 675 27C750 21 825 39 862.5 48L900 57L900 101L862.5 101C825 101 750 101 675 101C600 101 525 101 450 101C375 101 300 101 225 101C150 101 75 101 37.5 101L0 101Z" fill="#1e2020" stroke-linecap="round" stroke-linejoin="miter"></path></svg>