<svg viewBox="0 0 900 100" width="900" height="100" xmlns="http://www.w3.org/2000/svg" xmlns:xlink="http://www.w3.org/1999/xlink" version="1.1"><rect x="0" y="0" width="900" height="100" fill="#1e2020"></rect><path d="M0 44L37.5 48.3C75 52.7 150 61.3 225 56.7C300 52 375 34 450 33.2C525 32.3 600 48.7 675 49.2C750 49.7 825 34.3 862.5 26.7L900 19L900 101L862.5 101C825 101 750 101 675 101C600 101 525 101 450 101C375 101 300 101 225 101C150 101 75 101 37.5 101L0 101Z" fill="#6f9a3d" stroke-linecap="round" stroke-linejoin="miter"></path></svg>